{"title":"The Curse of Frankenstein (1957) HAMMER","uid":5573723,"size":734566453,"categoryP":"video","categoryS":"movies","magnet":"?xt=urn:btih:78bedbe15e52f4d5ca4ad49338edaf0f1de68bdc&amp;dn=The+Curse+of+Frankenstein+%281957%29+HAMMER&amp;tr=udp%3A%2F%2Ftracker.openbittorrent.com%3A80&amp;tr=udp%3A%2F%2Fopen.demonii.com%3A1337&amp;tr=udp%3A%2F%2Ftracker.coppersurfer.tk%3A6969&amp;tr=udp%3A%2F%2Fexodus.desync.com%3A6969","seeders":7,"leechers":0,"uploader":"Byron1799","files":-1,"time":1274322725,"description":"[b]The Curse of Frankenstein[/b] (1957) HAMMER\n\n[b]PLOT[/b]: Baron Victor Frankenstein, in prison for murder and trying to evade the guillotine, tells a priest how he and his mentor, Paul Krempe, had performed many scientific experiments, eventually leading to the resurrection of a dead body. The baron's obsession and the monster's homicidal nature cause the deaths of several of those around them. Finally the Baron is confronted by an enraged monster about to throw Victor's fiancÃƒÂ©e Elizabeth, from the castle parapet.\n\n[b]IMDB[/b]: [url]http://www.imdb.com/title/tt0050280/[/url]\n[b]WIKI:[/b] [url]http://en.wikipedia.org/wiki/The_Curse_of_Frankenstein[/url]\n\n\nFormat                           : AVI\nFormat/Info                      : Audio Video Interleave\nFile size                        : 700 MiB\nDuration                         : 1h 23mn\nOverall bit rate                 : 1 177 Kbps\nWriting application              : VirtualDubMod 1.5.4.1 (build 2178/release)\nWriting library                  : VirtualDubMod build 2178/release\n\nVideo\nID                               : 0\nFormat                           : MPEG-4 Visual\nFormat profile                   : Advanced Simple@L5\nFormat settings, BVOP            : Yes\nFormat settings, QPel            : No\nFormat settings, GMC             : No warppoints\nFormat settings, Matrix          : Custom\nCodec ID                         : XVID\nCodec ID/Hint                    : XviD\nDuration                         : 1h 23mn\nBit rate                         : 1 077 Kbps\nWidth                            : 720 pixels\nHeight                           : 416 pixels\nDisplay aspect ratio             : 16:9\nFrame rate                       : 23.976 fps\nResolution                       : 8 bits\nColorimetry                      : 4:2:0\nScan type                        : Progressive\nBits/(Pixel*Frame)               : 0.150\nStream size                      : 641 MiB (92%)\nWriting library                  : XviD 1.2.1 (UTC 2008-12-04)\n\nAudio\nID                               : 1\nFormat                           : MPEG Audio\nFormat version                   : Version 1\nFormat profile                   : Layer 3\nMode                             : Joint stereo\nFormat_Settings_ModeExtension    : MS Stereo\nCodec ID                         : 55\nCodec ID/Hint                    : MP3\nDuration                         : 1h 23mn\nBit rate mode                    : Variable\nBit rate                         : 86.9 Kbps\nChannel(s)                       : 2 channels\nSampling rate                    : 48.0 KHz\nStream size                      : 51.7 MiB (7%)\nAlignment                        : Aligned on interleaves\nInterleave, duration             : 24 ms (0.58 video frame)\nInterleave, preload duration     : 185 ms\nWriting library                  : LAME3.98.2\nLanguage                         : English\n\n[u][i][b]Please don't expect to get the movie in a few minutes, I only have limited bandwidth. Just hang in there, you'll get it in the end.[/b][/i][/u]","torrent":{"xt":"urn:btih:78bedbe15e52f4d5ca4ad49338edaf0f1de68bdc","amp;dn":"The+Curse+of+Frankenstein+%281957%29+HAMMER","amp;tr":["udp%3A%2F%2Ftracker.openbittorrent.com%3A80","udp%3A%2F%2Fopen.demonii.com%3A1337","udp%3A%2F%2Ftracker.coppersurfer.tk%3A6969","udp%3A%2F%2Fexodus.desync.com%3A6969"],"infoHash":"78bedbe15e52f4d5ca4ad49338edaf0f1de68bdc","infoHashBuffer":{"type":"Buffer","data":[120,190,219,225,94,82,244,213,202,74,212,147,56,237,175,15,29,230,139,220]},"announce":[],"urlList":[]}}